<?xml version="1.0" ?><!DOCTYPE svg  PUBLIC '-//W3C//DTD SVG 1.1//EN'  'http://www.w3.org/Graphics/SVG/1.1/DTD/svg11.dtd'><svg height="100%" style="fill-rule:evenodd;clip-rule:evenodd;stroke-linejoin:round;stroke-miterlimit:1.41421;" version="1.1" viewBox="0 0 101 126" width="100%" xml:space="preserve" xmlns="http://www.w3.org/2000/svg" xmlns:serif="http://www.serif.com/" xmlns:xlink="http://www.w3.org/1999/xlink"><path d="M50.127,25.465c-20.723,0 -37.575,16.852 -37.575,37.575c0,20.723 16.852,37.575 37.575,37.575c20.723,0 37.575,-16.852 37.575,-37.575c0,-20.723 -16.852,-37.575 -37.575,-37.575Z" style="fill:#eaff18;"/><path d="M50.127,38.54c13.522,0 24.5,10.978 24.5,24.5c0,13.522 -10.978,24.5 -24.5,24.5c-13.522,0 -24.5,-10.978 -24.5,-24.5c0,-13.522 10.978,-24.5 24.5,-24.5Zm-14.41,15.989c-1.477,2.495 -2.326,5.405 -2.326,8.511c0,9.237 7.499,16.736 16.736,16.736c3.107,0 6.017,-0.848 8.511,-2.326l-22.921,-22.921Zm28.858,16.959c1.454,-2.481 2.288,-5.368 2.288,-8.448c0,-9.237 -7.499,-16.736 -16.736,-16.736c-3.08,0 -5.967,0.834 -8.447,2.289l22.895,22.895Z" style="fill:#020000;"/></svg>