<?xml version="1.0" ?><!DOCTYPE svg  PUBLIC '-//W3C//DTD SVG 1.1//EN'  'http://www.w3.org/Graphics/SVG/1.1/DTD/svg11.dtd'><svg enable-background="new 0 0 27.172 27.174" height="27.174px" id="Capa_1" version="1.1" viewBox="0 0 27.172 27.174" width="27.172px" xml:space="preserve" xmlns="http://www.w3.org/2000/svg" xmlns:xlink="http://www.w3.org/1999/xlink"><path d="M25.918,1.369l-0.113-0.114c-1.674-1.673-4.395-1.673-6.067,0l-5.953,5.953c-1.219,1.218-1.539,2.992-0.981,4.514  l-1.081,1.081c-1.521-0.558-3.295-0.238-4.514,0.981l-5.953,5.953c-1.673,1.673-1.673,4.396,0,6.068L1.37,25.92  c1.673,1.672,4.395,1.672,6.067,0l5.953-5.954c1.219-1.219,1.539-2.992,0.981-4.514l1.08-1.081c1.521,0.558,3.295,0.237,4.514-0.981  l5.953-5.954C27.592,5.764,27.592,3.042,25.918,1.369z M5.88,23.767c-0.653,0.652-1.716,0.652-2.37,0l-0.103-0.103  c-0.653-0.653-0.653-1.72,0-2.37l4.175-4.175c-0.313,0.69-0.192,1.532,0.374,2.099c0.566,0.565,1.41,0.686,2.1,0.373L5.88,23.767z   M23.767,5.879l-4.134,4.134c0.312-0.69,0.191-1.532-0.375-2.098s-1.408-0.686-2.098-0.373l4.133-4.135  c0.653-0.653,1.717-0.653,2.371,0l0.103,0.103C24.42,4.164,24.42,5.227,23.767,5.879z"/></svg>